{"title":"Connect-R - Vara nu dorm 2012-MFA","uid":7342071,"size":148460336,"categoryP":"audio","categoryS":"sound_clips","magnet":"?xt=urn:btih:d0212f85c114453d4a5d3832825446cc468e2aa5&amp;dn=Connect-R+-+Vara+nu+dorm+2012-MFA&amp;tr=udp%3A%2F%2Ftracker.openbittorrent.com%3A80&amp;tr=udp%3A%2F%2Fopen.demonii.com%3A1337&amp;tr=udp%3A%2F%2Ftracker.coppersurfer.tk%3A6969&amp;tr=udp%3A%2F%2Fexodus.desync.com%3A6969","seeders":7,"leechers":0,"uploader":"MFATeam","files":1,"time":1339270366,"description":"Artist: Connect-R\nName: Vara nu dorm\nYear: 2012\nLanguage: Romanian\nCountry: Romania\n\nGeneral\nComplete name : C:\nFormat : AVI\nFormat/Info : Audio Video Interleave\nFile size : 142 MiB\nDuration : 3mn 28s\nOverall bit rate : 5 699 Kbps\nMovie name : Connect-R - Vara nu dorm (Official Video)\nWriting application : Lavf52.16.0\n\nVideo\nID : 0\nFormat : MPEG-4 Visual\nFormat profile : Simple@L1\nFormat settings, BVOP : No\nFormat settings, QPel : No\nFormat settings, GMC : No warppoints\nFormat settings, Matrix : Default (H.263)\nCodec ID : DIVX\nCodec ID/Info : Project Mayo\nCodec ID/Hint : DivX 4\nDuration : 3mn 28s\nBit rate : 5 375 Kbps\nWidth : 640 pixels\nHeight : 480 pixels\nDisplay aspect ratio : 4:3\nFrame rate : 23.976 fps\nColor space : YUV\nChroma subsampling : 4:2:0\nBit depth : 8 bits\nScan type : Progressive\nCompression mode : Lossy\nBits/(Pixel*Frame) : 0.730\nStream size : 133 MiB (94%)\nWriting library : Lavc51.57.2\n\nAudio\nID : 1\nFormat : MPEG Audio\nFormat version : Version 1\nFormat profile : Layer 3\nMode : Joint stereo\nCodec ID : 55\nCodec ID/Hint : MP3\nDuration : 3mn 28s\nBit rate mode : Constant\nBit rate : 320 Kbps\nChannel(s) : 2 channels\nSampling rate : 48.0 KHz\nCompression mode : Lossy\nStream size : 7.95 MiB (6%)\nAlignment : Aligned on interleaves\nInterleave, duration : 24 ms (0.57 video frame)\nWriting library : LAME3.97\n\n","torrent":{"xt":"urn:btih:d0212f85c114453d4a5d3832825446cc468e2aa5","amp;dn":"Connect-R+-+Vara+nu+dorm+2012-MFA","amp;tr":["udp%3A%2F%2Ftracker.openbittorrent.com%3A80","udp%3A%2F%2Fopen.demonii.com%3A1337","udp%3A%2F%2Ftracker.coppersurfer.tk%3A6969","udp%3A%2F%2Fexodus.desync.com%3A6969"],"infoHash":"d0212f85c114453d4a5d3832825446cc468e2aa5","infoHashBuffer":{"type":"Buffer","data":[208,33,47,133,193,20,69,61,74,93,56,50,130,84,70,204,70,142,42,165]},"announce":[],"urlList":[]}}